<svg width="46" height="33" viewBox="0 0 46 33" fill="none" xmlns="http://www.w3.org/2000/svg">
<path d="M3.50816 9.37843L13.7141 2.54157C14.3475 2.11719 15.1114 1.933 15.8689 2.02192L25.1146 3.10972C26.1643 3.23328 27.0379 3.97291 27.3324 4.98739L30.8758 17.1853C31.2419 18.4446 30.724 19.7934 29.609 20.4845L22.1838 25.0874C20.5325 26.1111 18.6178 26.6291 16.6755 26.5783L8.43733 26.3617C7.33971 26.3329 6.38587 25.599 6.07639 24.5458L2.46771 12.2521C2.14957 11.1695 2.57106 10.006 3.50816 9.37843Z" stroke="#170D4D" stroke-width="3.81077" stroke-miterlimit="10"/>
<path d="M15.1375 3.05481L19.3865 17.2089L29.8718 18.5762" stroke="#170D4D" stroke-width="3.00242" stroke-miterlimit="10"/>
<path d="M7.83237 25.0549L19.3865 17.2094" stroke="#170D4D" stroke-width="3.00242" stroke-miterlimit="10"/>
<path d="M25.0223 13.2284L32.4827 18.7223C32.8823 19.0167 33.052 19.5318 32.9054 20.0058L29.5767 30.7781C29.3822 31.4075 28.6235 31.6552 28.0952 31.2614L23.2976 27.6845C21.5354 26.3704 20.7739 24.1006 21.3871 21.9897L23.8138 13.6384C23.9645 13.1187 24.5864 12.908 25.0223 13.2284Z" fill="#170D4D"/>
<path d="M35.4684 21.1587L32.0993 32.483C32.0225 32.7423 32.2056 33.0056 32.4579 32.9998L39.8363 32.8185C41.1863 32.785 42.3734 31.8491 42.8099 30.4731L45.5958 21.6841C45.765 21.1501 45.396 20.5946 44.8717 20.5946H36.1867C35.8587 20.5946 35.5683 20.8227 35.4684 21.1587Z" fill="#170D4D"/>
<path d="M27.5906 12.4689L34.7537 17.823C35.1821 18.1435 35.7 18.323 36.2347 18.3363L45.0399 18.5621C45.2575 18.5679 45.3522 18.2884 45.1755 18.1608L40.0986 14.4874C38.5056 13.335 36.6111 12.6716 34.6469 12.5792L27.6691 12.2501C27.549 12.2449 27.4947 12.3973 27.5906 12.4689Z" fill="#170D4D"/>
<path d="M24.4384 11.3563L35.0589 19.5091" stroke="white" stroke-width="2.19408" stroke-miterlimit="10"/>
<path d="M19.8178 24.2055L28.0577 19.852L20.8242 18.8883L19.8178 24.2055Z" fill="white"/>
</svg>
